<svg xmlns="http://www.w3.org/2000/svg" width="40.25" height="16" viewBox="0 0 40.25 16"><g transform="translate(-776 -267)"><circle cx="8" cy="8" r="8" transform="translate(776 267)" fill="#529ad2"/><path d="M15,.75H12A.75.75,0,0,1,11.25,0,.75.75,0,0,1,12-.75h3a.75.75,0,0,1,.75.75A.75.75,0,0,1,15,.75Zm-6,0H6A.75.75,0,0,1,5.25,0,.75.75,0,0,1,6-.75H9A.75.75,0,0,1,9.75,0,.75.75,0,0,1,9,.75Zm-6,0H0A.75.75,0,0,1-.75,0,.75.75,0,0,1,0-.75H3A.75.75,0,0,1,3.75,0,.75.75,0,0,1,3,.75Z" transform="translate(800.5 275.5)" fill="#0d274b"/></g></svg>