<svg xmlns="http://www.w3.org/2000/svg" width="342.453" height="448" viewBox="0 0 342.453 448"><path d="M351.2,32H285.9a12,12,0,0,0-10.8,6.7L219.7,151.9c-14.5,34.7-27.1,71.9-27.1,71.9h-1.3s-12.6-37.2-27.1-71.9L108.8,38.7A12,12,0,0,0,98,32H32.8A12,12,0,0,0,22.2,49.6L102.3,200H44a12.035,12.035,0,0,0-12,12v32a12.035,12.035,0,0,0,12,12h88.2L152,293.2V320H44a12.035,12.035,0,0,0-12,12v32a12.035,12.035,0,0,0,12,12H152v92a12.035,12.035,0,0,0,12,12h56a12.035,12.035,0,0,0,12-12V376H340a12.035,12.035,0,0,0,12-12V332a12.035,12.035,0,0,0-12-12H232V293.2L251.8,256H340a12.035,12.035,0,0,0,12-12V212a12.035,12.035,0,0,0-12-12H281.7L361.8,49.6A11.962,11.962,0,0,0,351.2,32Z" transform="translate(-20.794 -32)" fill="#fff"/></svg>