<svg xmlns="http://www.w3.org/2000/svg" width="512" height="512" viewBox="0 0 512 512"><path d="M192,208a32,32,0,0,0-32-32H144a64,64,0,0,0-64,64v48a64,64,0,0,0,64,64h16a32,32,0,0,0,32-32ZM368,352a64,64,0,0,0,64-64V240a64,64,0,0,0-64-64H352a32,32,0,0,0-32,32V320a32,32,0,0,0,32,32ZM256,0C113.18,0,4.58,118.83,0,256v16a16,16,0,0,0,16,16H32a16,16,0,0,0,16-16V256C48,141.31,141.31,48,256,48s208,93.31,208,208h-.12c.08,2.43.12,165.72.12,165.72A42.281,42.281,0,0,1,421.72,464H320a48,48,0,0,0-48-48H240a48,48,0,0,0,0,96H421.72A90.28,90.28,0,0,0,512,421.72V256C507.42,118.83,398.82,0,256,0Z" fill="#363636"/></svg>