<svg xmlns="http://www.w3.org/2000/svg" width="474.821" height="496.002" viewBox="0 0 474.821 496.002"><path d="M487.4,315.7l-42.6-24.6a192.622,192.622,0,0,0,0-70.2l42.6-24.6a12.085,12.085,0,0,0,5.5-14,249.058,249.058,0,0,0-54.7-94.6,12.033,12.033,0,0,0-14.8-2.3L380.8,110A188.725,188.725,0,0,0,320,74.9V25.8a11.981,11.981,0,0,0-9.4-11.7,251.393,251.393,0,0,0-109.2,0A11.981,11.981,0,0,0,192,25.8V75a194.681,194.681,0,0,0-60.8,35.1L88.7,85.5a11.881,11.881,0,0,0-14.8,2.3,247.56,247.56,0,0,0-54.7,94.6,11.962,11.962,0,0,0,5.5,14L67.3,221a192.622,192.622,0,0,0,0,70.2L24.7,315.8a12.085,12.085,0,0,0-5.5,14,249.057,249.057,0,0,0,54.7,94.6,12.033,12.033,0,0,0,14.8,2.3l42.6-24.6a188.725,188.725,0,0,0,60.8,35.1v49.2a11.981,11.981,0,0,0,9.4,11.7,251.393,251.393,0,0,0,109.2,0,11.981,11.981,0,0,0,9.4-11.7V437.2a194.68,194.68,0,0,0,60.8-35.1l42.6,24.6a11.882,11.882,0,0,0,14.8-2.3A247.56,247.56,0,0,0,493,329.8,12.35,12.35,0,0,0,487.4,315.7ZM256,336a80,80,0,1,1,80-80A80.106,80.106,0,0,1,256,336Z" transform="translate(-18.644 -8.099)" fill="#fff"/></svg>