<svg xmlns="http://www.w3.org/2000/svg" width="512" height="512.001" viewBox="0 0 512 512.001"><path d="M326.612,185.391a151.921,151.921,0,0,1,.36,214.59c-.11.12-.24.25-.36.37l-67.2,67.2c-59.27,59.27-155.7,59.262-214.96,0s-59.27-155.7,0-214.96l37.106-37.106c9.84-9.84,26.786-3.3,27.294,10.606a184.266,184.266,0,0,0,9.69,52.721,16.1,16.1,0,0,1-3.783,16.612l-13.087,13.087c-28.026,28.026-28.9,73.66-1.155,101.96a72.081,72.081,0,0,0,102.325.51l67.2-67.19a71.982,71.982,0,0,0,0-101.83,74.908,74.908,0,0,0-10.341-8.569,16.037,16.037,0,0,1-6.947-12.606,39.832,39.832,0,0,1,11.7-29.806l21.054-21.055a16.064,16.064,0,0,1,20.584-1.731,152.483,152.483,0,0,1,20.522,17.2ZM467.547,44.449c-59.261-59.262-155.69-59.27-214.96,0l-67.2,67.2c-.12.12-.25.25-.36.37A152.03,152.03,0,0,0,205.908,343.8a16.065,16.065,0,0,0,20.584-1.731l21.054-21.055a39.832,39.832,0,0,0,11.7-29.806,16.037,16.037,0,0,0-6.947-12.606,74.909,74.909,0,0,1-10.341-8.569,71.982,71.982,0,0,1,0-101.83l67.2-67.19a72.081,72.081,0,0,1,102.325.51c27.75,28.3,26.872,73.934-1.155,101.96l-13.087,13.087a16.094,16.094,0,0,0-3.783,16.612,184.266,184.266,0,0,1,9.69,52.721c.509,13.906,17.454,20.446,27.294,10.606l37.106-37.106c59.271-59.259,59.271-155.7,0-214.959Z" transform="translate(0 0)" fill="#363636"/></svg>