<svg xmlns="http://www.w3.org/2000/svg" width="512" height="384" viewBox="0 0 512 384"><path d="M496,384H64V80A16,16,0,0,0,48,64H16A16,16,0,0,0,0,80V416a32,32,0,0,0,32,32H496a16,16,0,0,0,16-16V400A16,16,0,0,0,496,384ZM464,96H345.94c-21.38,0-32.09,25.85-16.97,40.97l32.4,32.4L288,242.75l-73.37-73.37a31.988,31.988,0,0,0-45.25,0l-68.69,68.69a16,16,0,0,0,0,22.63l22.62,22.62a16,16,0,0,0,22.63,0L192,237.25l73.37,73.37a31.988,31.988,0,0,0,45.25,0l96-96,32.4,32.4c15.12,15.12,40.97,4.41,40.97-16.97V112A15.981,15.981,0,0,0,464,96Z" transform="translate(0 -64)" fill="#363636"/></svg>